<?xml version="1.0" standalone="no"?><!DOCTYPE svg PUBLIC "-//W3C//DTD SVG 1.1//EN" "http://www.w3.org/Graphics/SVG/1.1/DTD/svg11.dtd"><svg t="1699102778056" class="icon" viewBox="0 0 1400 1024" version="1.1" xmlns="http://www.w3.org/2000/svg" p-id="2117" xmlns:xlink="http://www.w3.org/1999/xlink" width="273.4375" height="200"><path d="M1350.024005 325.053696L798.56475 0 0 454.428301l555.340493 326.994314 794.683512-456.368919z" fill="#DDE1E2" p-id="2118"></path><path d="M0 454.104864v207.322805l555.340493 323.436513v-203.441567L0 454.104864z" fill="#B0B8BA" p-id="2119"></path><path d="M775.924195 284.947568l-239.019584 140.371447a58.218572 58.218572 0 0 1-32.343651 8.085912l-245.81175-32.343651c-13.90777-1.940619-18.112445-7.762476-8.732785-13.260897l465.101705-273.303853c17.789008-10.673405 35.25458-4.851548 38.165509 10.996841l28.785849 148.457359c2.587492 3.557802-0.97031 8.085913-6.145293 10.996842zM620.027795 475.128238l239.019583-140.371447a61.129501 61.129501 0 0 1 32.343652-8.409349l255.838281 24.581175c15.201516 0 20.3765 7.43904 10.349969 13.260897l-489.359444 286.888187c-18.759318 10.996841-35.901453 4.528111-37.842072-12.614024L610.648136 485.154769c0-2.587492 4.528111-7.115603 9.379659-10.026531z" fill="#D2D7D8" p-id="2120"></path><path d="M1400.156665 530.112445L550.165509 1024v-220.583702L1400.156665 309.852179v220.260266z" fill="#34383B" p-id="2121"></path><path d="M532.3765 1011.062539l17.789009 12.937461v-220.583702l-17.789009-12.93746v220.583701z" fill="#141516" p-id="2122"></path><path d="M1382.691093 296.914719L532.3765 790.478838l17.789009 12.93746L1400.156665 309.852179l-17.465572-12.93746z" fill="#485154" p-id="2123"></path><path d="M1350.024005 535.934302l-358.04422 208.616551v-171.421352l358.04422-208.616551v171.421352z" p-id="2124"></path><path d="M1331.91156 542.403032l-321.81933 186.299432v-161.718257l321.81933-186.622868v162.041693z" fill="#4D7CB8" p-id="2125"></path><path d="M666.602653 829.938092l-47.221731 29.109286c-4.204675 2.587492-7.43904 0-7.439039-4.851547a18.112445 18.112445 0 0 1 7.439039-14.231207l47.221731-29.109286c4.204675-2.587492 7.43904 0 7.43904 4.851548a18.112445 18.112445 0 0 1-7.43904 14.231206z" fill="#42424C" p-id="2126"></path><path d="M666.279217 827.027164l-47.221731 29.109286c-4.204675 2.587492-7.43904 0-7.43904-4.851548a18.112445 18.112445 0 0 1 7.43904-14.231206l47.221731-29.109287c4.204675-2.587492 7.43904 0 7.439039 4.851548a18.112445 18.112445 0 0 1-7.439039 14.231207z" fill="#020202" p-id="2127"></path><path d="M762.986734 768.485155l-47.221731 29.109286c-4.204675 2.587492-7.43904 0-7.43904-4.851548a18.112445 18.112445 0 0 1 7.43904-14.231206l47.221731-29.109286c4.204675-2.587492 7.43904 0 7.43904 4.851547a18.112445 18.112445 0 0 1-7.43904 14.231207z" fill="#42424C" p-id="2128"></path><path d="M762.663298 765.574226l-47.221731 29.109286c-4.204675 2.587492-7.43904 0-7.43904-4.851547a18.112445 18.112445 0 0 1 7.43904-14.231207l47.221731-29.109286c4.204675-2.587492 7.43904 0 7.439039 4.851548a18.112445 18.112445 0 0 1-7.439039 14.231206z" fill="#020202" p-id="2129"></path><path d="M862.928617 711.560328l-47.221731 29.109287c-4.204675 2.587492-7.43904 0-7.43904-4.851548a18.112445 18.112445 0 0 1 7.43904-14.231207l47.221731-29.109286c4.204675-2.587492 7.43904 0 7.439039 4.851548a18.112445 18.112445 0 0 1-7.439039 14.231206z" fill="#42424C" p-id="2130"></path><path d="M862.60518 708.002527l-47.221731 29.109286c-4.204675 2.587492-7.43904 0-7.43904-4.851548a18.112445 18.112445 0 0 1 7.43904-14.231206l47.221731-29.109286c4.204675-2.587492 7.43904 0 7.43904 4.851547a18.112445 18.112445 0 0 1-7.43904 14.231207z" fill="#020202" p-id="2131"></path><path d="M959.95957 653.341756l-47.22173 29.109286c-4.204675 2.587492-7.43904 0-7.43904-4.851547a18.112445 18.112445 0 0 1 7.43904-14.231207l47.22173-29.109286c4.204675-2.587492 7.43904 0 7.43904 4.851548a18.112445 18.112445 0 0 1-7.43904 14.231206z" fill="#42424C" p-id="2132"></path><path d="M959.636134 650.754264l-47.221731 29.109286c-4.204675 2.587492-7.43904 0-7.43904-4.851547a18.112445 18.112445 0 0 1 7.43904-14.231207l47.221731-29.109286c4.204675-2.587492 7.43904 0 7.43904 4.851547a18.112445 18.112445 0 0 1-7.43904 14.231207z" fill="#020202" p-id="2133"></path><path d="M959.95957 718.029059l-47.22173 29.109286c-4.204675 2.587492-7.43904 0-7.43904-4.851548a18.112445 18.112445 0 0 1 7.43904-14.231206l47.22173-29.109287c4.204675-2.587492 7.43904 0 7.43904 4.851548a18.112445 18.112445 0 0 1-7.43904 14.231207z" fill="#42424C" p-id="2134"></path><path d="M959.636134 715.441567l-47.221731 29.109286c-4.204675 2.587492-7.43904 0-7.43904-4.851548a18.112445 18.112445 0 0 1 7.43904-14.231206l47.221731-29.109287c4.204675-2.587492 7.43904 0 7.43904 4.851548a18.112445 18.112445 0 0 1-7.43904 14.231207z" fill="#020202" p-id="2135"></path><path d="M862.928617 778.18825l-47.221731 29.109286c-4.204675 2.587492-7.43904 0-7.43904-4.851547a18.112445 18.112445 0 0 1 7.43904-14.231207l47.221731-29.109286c4.204675-2.587492 7.43904 0 7.439039 4.851548a18.112445 18.112445 0 0 1-7.439039 14.231206z" fill="#42424C" p-id="2136"></path><path d="M862.60518 776.247631l-47.221731 29.109286c-4.204675 2.587492-7.43904 0-7.43904-4.851547a18.112445 18.112445 0 0 1 7.43904-14.231207l47.221731-29.109286c4.204675-2.587492 7.43904 0 7.43904 4.851548a18.112445 18.112445 0 0 1-7.43904 14.231206z" fill="#020202" p-id="2137"></path><path d="M765.574226 835.759949l-47.221731 29.109287c-4.204675 2.587492-7.43904 0-7.43904-4.851548a18.112445 18.112445 0 0 1 7.43904-14.231207l47.221731-29.109286c4.204675-2.587492 7.43904 0 7.43904 4.851548a18.112445 18.112445 0 0 1-7.43904 14.231206z" fill="#42424C" p-id="2138"></path><path d="M765.25079 832.849021l-47.221731 29.109286c-4.204675 2.587492-7.43904 0-7.43904-4.851548a18.112445 18.112445 0 0 1 7.43904-14.231206l47.221731-29.109286c4.204675-2.587492 7.43904 0 7.439039 4.851547a18.112445 18.112445 0 0 1-7.439039 14.231207z" fill="#020202" p-id="2139"></path><path d="M666.279217 895.919141l-47.221731 29.109286c-4.204675 2.587492-7.43904 0-7.43904-4.851548a18.112445 18.112445 0 0 1 7.43904-14.231206l47.221731-29.109286c4.204675-2.587492 7.43904 0 7.439039 4.851547a18.112445 18.112445 0 0 1-7.439039 14.231207z" fill="#42424C" p-id="2140"></path><path d="M665.95578 893.008212l-47.221731 29.109286c-4.204675 2.587492-7.43904 0-7.43904-4.851547a18.112445 18.112445 0 0 1 7.43904-14.231207l47.221731-29.109286c4.204675-2.587492 7.43904 0 7.43904 4.851548a18.112445 18.112445 0 0 1-7.43904 14.231206z" fill="#020202" p-id="2141"></path></svg>